# This file uses centimeters as units for non-parametric coordinates.

mtllib stoplight.mtl
g default
v 2.655473 9.766908 -23.465971
v 2.508256 9.894472 -23.465971
v 2.315442 9.922195 -23.465971
v 2.138249 9.841273 -23.465971
v 2.032934 9.677400 -23.465971
v 2.032934 9.482604 -23.465971
v 2.138249 9.318731 -23.465971
v 2.315442 9.237810 -23.465971
v 2.508255 9.265532 -23.465971
v 2.655473 9.393097 -23.465971
v 2.710353 9.580002 -23.465971
v 2.655473 9.766908 -23.284314
v 2.508256 9.894472 -23.284314
v 2.315442 9.922195 -23.284314
v 2.138249 9.841273 -23.284314
v 2.032934 9.677400 -23.284314
v 2.032934 9.482604 -23.284314
v 2.138249 9.318731 -23.284314
v 2.315442 9.237810 -23.284314
v 2.508255 9.265532 -23.284314
v 2.655473 9.393097 -23.284314
v 2.710353 9.580002 -23.284314
v 2.364642 9.580002 -23.465971
v 2.364642 9.580002 -23.284314
vt 0.108940 0.400935
vt 0.088743 0.383433
vt 0.062290 0.379630
vt 0.037979 0.390732
vt 0.023531 0.413215
vt 0.023531 0.439940
vt 0.037979 0.462423
vt 0.062290 0.473525
vt 0.088743 0.469721
vt 0.108940 0.452220
vt 0.116470 0.426577
vt 0.568217 0.882954
vt 0.590945 0.882954
vt 0.613672 0.882954
vt 0.636399 0.882954
vt 0.659126 0.882954
vt 0.681854 0.882954
vt 0.704581 0.882954
vt 0.727308 0.882954
vt 0.750035 0.882954
vt 0.772763 0.882954
vt 0.795490 0.882954
vt 0.818217 0.882954
vt 0.568217 0.912103
vt 0.590945 0.912103
vt 0.613672 0.912103
vt 0.636399 0.912103
vt 0.659126 0.912103
vt 0.681854 0.912103
vt 0.704581 0.912103
vt 0.727308 0.912103
vt 0.750035 0.912103
vt 0.772763 0.912103
vt 0.795490 0.912103
vt 0.818217 0.912103
vt 0.254258 0.525528
vt 0.200168 0.480566
vt 0.129326 0.470795
vt 0.064223 0.499317
vt 0.025529 0.557076
vt 0.025529 0.625735
vt 0.064223 0.683494
vt 0.129326 0.712016
vt 0.200168 0.702245
vt 0.254258 0.657283
vt 0.274422 0.591406
vt 0.069040 0.424680
vt 0.147403 0.586532
vn 0.654861 0.755749 0.000000
vn 0.654861 0.755749 0.000000
vn 0.654861 0.755749 0.000000
vn 0.654861 0.755749 0.000000
vn 0.142315 0.989821 0.000000
vn 0.142315 0.989821 0.000000
vn 0.142315 0.989821 0.000000
vn 0.142315 0.989821 0.000000
vn -0.415415 0.909632 0.000000
vn -0.415415 0.909632 0.000000
vn -0.415415 0.909632 0.000000
vn -0.415415 0.909632 0.000000
vn -0.841253 0.540641 0.000000
vn -0.841253 0.540641 0.000000
vn -0.841253 0.540641 0.000000
vn -0.841253 0.540641 0.000000
vn -1.000000 0.000000 0.000000
vn -1.000000 0.000000 0.000000
vn -1.000000 0.000000 0.000000
vn -1.000000 0.000000 0.000000
vn -0.841254 -0.540641 0.000000
vn -0.841254 -0.540641 0.000000
vn -0.841254 -0.540641 0.000000
vn -0.841254 -0.540641 0.000000
vn -0.415415 -0.909632 0.000000
vn -0.415415 -0.909632 0.000000
vn -0.415415 -0.909632 0.000000
vn -0.415415 -0.909632 0.000000
vn 0.142315 -0.989821 0.000000
vn 0.142315 -0.989821 0.000000
vn 0.142315 -0.989821 0.000000
vn 0.142315 -0.989821 0.000000
vn 0.654861 -0.755750 0.000000
vn 0.654861 -0.755750 0.000000
vn 0.654861 -0.755750 0.000000
vn 0.654861 -0.755750 0.000000
vn 0.959493 -0.281733 0.000000
vn 0.959493 -0.281733 0.000000
vn 0.959493 -0.281733 0.000000
vn 0.959493 -0.281733 0.000000
vn 0.959493 0.281732 0.000000
vn 0.959493 0.281732 0.000000
vn 0.959493 0.281732 0.000000
vn 0.959493 0.281732 0.000000
vn 0.000000 -0.000000 -1.000000
vn 0.000000 -0.000000 -1.000000
vn 0.000000 0.000000 -1.000000
vn 0.000000 0.000000 -1.000000
vn 0.000000 0.000000 -1.000000
vn 0.000000 -0.000000 -1.000000
vn 0.000000 -0.000000 -1.000000
vn 0.000000 -0.000000 -1.000000
vn 0.000000 -0.000000 -1.000000
vn 0.000000 -0.000000 -1.000000
vn 0.000000 -0.000000 -1.000000
vn 0.000000 -0.000000 -1.000000
vn 0.000000 0.000000 1.000000
vn 0.000000 0.000000 1.000000
vn 0.000000 0.000000 1.000000
vn 0.000000 0.000000 1.000000
vn 0.000000 0.000000 1.000000
vn 0.000000 0.000000 1.000000
vn 0.000000 0.000000 1.000000
vn 0.000000 0.000000 1.000000
vn 0.000000 -0.000000 1.000000
vn 0.000000 -0.000000 1.000000
vn 0.000000 0.000000 1.000000
vn 0.000000 0.000000 1.000000
s off
g groen_lampje stoplight
usemtl initialShadingGroup
f 1/12/1 2/13/2 13/25/3 12/24/4
f 2/13/5 3/14/6 14/26/7 13/25/8
f 3/14/9 4/15/10 15/27/11 14/26/12
f 4/15/13 5/16/14 16/28/15 15/27/16
f 5/16/17 6/17/18 17/29/19 16/28/20
f 6/17/21 7/18/22 18/30/23 17/29/24
f 7/18/25 8/19/26 19/31/27 18/30/28
f 8/19/29 9/20/30 20/32/31 19/31/32
f 9/20/33 10/21/34 21/33/35 20/32/36
f 10/21/37 11/22/38 22/34/39 21/33/40
f 11/22/41 1/23/42 12/35/43 22/34/44
s 1
f 2/2/45 1/1/46 23/47/47
f 3/3/48 2/2/45 23/47/47
f 4/4/49 3/3/48 23/47/47
f 5/5/50 4/4/49 23/47/47
f 6/6/51 5/5/50 23/47/47
f 7/7/52 6/6/51 23/47/47
f 8/8/53 7/7/52 23/47/47
f 9/9/54 8/8/53 23/47/47
f 10/10/55 9/9/54 23/47/47
f 11/11/56 10/10/55 23/47/47
f 1/1/46 11/11/56 23/47/47
s 2
f 12/45/57 13/44/58 24/48/59
f 13/44/58 14/43/60 24/48/59
f 14/43/60 15/42/61 24/48/59
f 15/42/61 16/41/62 24/48/59
f 16/41/62 17/40/63 24/48/59
f 17/40/63 18/39/64 24/48/59
f 18/39/64 19/38/65 24/48/59
f 19/38/65 20/37/66 24/48/59
f 20/37/66 21/36/67 24/48/59
f 21/36/67 22/46/68 24/48/59
f 22/46/68 12/45/57 24/48/59
g default
v 2.668643 9.002214 -23.465971
v 2.521426 9.129778 -23.465971
v 2.328612 9.157501 -23.465971
v 2.151419 9.076579 -23.465971
v 2.046104 8.912706 -23.465971
v 2.046104 8.717910 -23.465971
v 2.151419 8.554037 -23.465971
v 2.328612 8.473116 -23.465971
v 2.521426 8.500838 -23.465971
v 2.668643 8.628402 -23.465971
v 2.723523 8.815308 -23.465971
v 2.668643 9.002214 -23.284314
v 2.521426 9.129778 -23.284314
v 2.328612 9.157501 -23.284314
v 2.151419 9.076579 -23.284314
v 2.046104 8.912706 -23.284314
v 2.046104 8.717910 -23.284314
v 2.151419 8.554037 -23.284314
v 2.328612 8.473116 -23.284314
v 2.521426 8.500838 -23.284314
v 2.668643 8.628402 -23.284314
v 2.723523 8.815308 -23.284314
v 2.377812 8.815308 -23.465971
v 2.377812 8.815308 -23.284314
vt 0.360439 0.918846
vt 0.341191 0.902167
vt 0.315980 0.898542
vt 0.292812 0.909122
vt 0.279042 0.930549
vt 0.279042 0.956018
vt 0.292812 0.977445
vt 0.315980 0.988025
vt 0.341191 0.984401
vt 0.360439 0.967722
vt 0.367615 0.943284
vt 0.571099 0.936874
vt 0.593826 0.936874
vt 0.616554 0.936874
vt 0.639281 0.936874
vt 0.662008 0.936874
vt 0.684735 0.936874
vt 0.707463 0.936874
vt 0.730190 0.936874
vt 0.752917 0.936874
vt 0.775644 0.936874
vt 0.798372 0.936874
vt 0.821099 0.936874
vt 0.571099 0.966023
vt 0.593826 0.966023
vt 0.616554 0.966023
vt 0.639281 0.966023
vt 0.662008 0.966023
vt 0.684735 0.966023
vt 0.707463 0.966023
vt 0.730190 0.966023
vt 0.752917 0.966023
vt 0.775644 0.966023
vt 0.798372 0.966023
vt 0.821099 0.966023
vt 0.253814 0.788992
vt 0.199551 0.741973
vt 0.128481 0.731755
vt 0.063169 0.761582
vt 0.024351 0.821984
vt 0.024351 0.893785
vt 0.063169 0.954187
vt 0.128481 0.984014
vt 0.199551 0.973796
vt 0.253814 0.926777
vt 0.274043 0.857885
vt 0.322413 0.941476
vt 0.146616 0.852787
vn 0.654861 0.755749 0.000000
vn 0.654861 0.755749 0.000000
vn 0.654861 0.755749 0.000000
vn 0.654861 0.755749 0.000000
vn 0.142315 0.989821 0.000000
vn 0.142315 0.989821 0.000000
vn 0.142315 0.989821 0.000000
vn 0.142315 0.989821 0.000000
vn -0.415415 0.909632 0.000000
vn -0.415415 0.909632 0.000000
vn -0.415415 0.909632 0.000000
vn -0.415415 0.909632 0.000000
vn -0.841253 0.540641 0.000000
vn -0.841253 0.540641 0.000000
vn -0.841253 0.540641 0.000000
vn -0.841253 0.540641 0.000000
vn -1.000000 0.000000 0.000000
vn -1.000000 0.000000 0.000000
vn -1.000000 0.000000 0.000000
vn -1.000000 0.000000 0.000000
vn -0.841254 -0.540641 0.000000
vn -0.841254 -0.540641 0.000000
vn -0.841254 -0.540641 0.000000
vn -0.841254 -0.540641 0.000000
vn -0.415415 -0.909632 0.000000
vn -0.415415 -0.909632 0.000000
vn -0.415415 -0.909632 0.000000
vn -0.415415 -0.909632 0.000000
vn 0.142315 -0.989821 0.000000
vn 0.142315 -0.989821 0.000000
vn 0.142315 -0.989821 0.000000
vn 0.142315 -0.989821 0.000000
vn 0.654861 -0.755750 0.000000
vn 0.654861 -0.755750 0.000000
vn 0.654861 -0.755750 0.000000
vn 0.654861 -0.755750 0.000000
vn 0.959493 -0.281733 0.000000
vn 0.959493 -0.281733 0.000000
vn 0.959493 -0.281733 0.000000
vn 0.959493 -0.281733 0.000000
vn 0.959493 0.281732 0.000000
vn 0.959493 0.281732 0.000000
vn 0.959493 0.281732 0.000000
vn 0.959493 0.281732 0.000000
vn 0.000000 -0.000000 -1.000000
vn 0.000000 -0.000000 -1.000000
vn 0.000000 0.000000 -1.000000
vn 0.000000 0.000000 -1.000000
vn 0.000000 0.000000 -1.000000
vn 0.000000 -0.000000 -1.000000
vn 0.000000 -0.000000 -1.000000
vn 0.000000 -0.000000 -1.000000
vn 0.000000 -0.000000 -1.000000
vn 0.000000 -0.000000 -1.000000
vn 0.000000 -0.000000 -1.000000
vn 0.000000 -0.000000 -1.000000
vn 0.000000 0.000000 1.000000
vn 0.000000 0.000000 1.000000
vn 0.000000 0.000000 1.000000
vn 0.000000 0.000000 1.000000
vn 0.000000 0.000000 1.000000
vn 0.000000 0.000000 1.000000
vn 0.000000 0.000000 1.000000
vn 0.000000 0.000000 1.000000
vn 0.000000 -0.000000 1.000000
vn 0.000000 -0.000000 1.000000
vn 0.000000 0.000000 1.000000
vn 0.000000 0.000000 1.000000
s off
g stoplight rood_lampje
usemtl initialShadingGroup
f 25/60/69 26/61/70 37/73/71 36/72/72
f 26/61/73 27/62/74 38/74/75 37/73/76
f 27/62/77 28/63/78 39/75/79 38/74/80
f 28/63/81 29/64/82 40/76/83 39/75/84
f 29/64/85 30/65/86 41/77/87 40/76/88
f 30/65/89 31/66/90 42/78/91 41/77/92
f 31/66/93 32/67/94 43/79/95 42/78/96
f 32/67/97 33/68/98 44/80/99 43/79/100
f 33/68/101 34/69/102 45/81/103 44/80/104
f 34/69/105 35/70/106 46/82/107 45/81/108
f 35/70/109 25/71/110 36/83/111 46/82/112
s 1
f 26/50/113 25/49/114 47/95/115
f 27/51/116 26/50/113 47/95/115
f 28/52/117 27/51/116 47/95/115
f 29/53/118 28/52/117 47/95/115
f 30/54/119 29/53/118 47/95/115
f 31/55/120 30/54/119 47/95/115
f 32/56/121 31/55/120 47/95/115
f 33/57/122 32/56/121 47/95/115
f 34/58/123 33/57/122 47/95/115
f 35/59/124 34/58/123 47/95/115
f 25/49/114 35/59/124 47/95/115
s 2
f 36/93/125 37/92/126 48/96/127
f 37/92/126 38/91/128 48/96/127
f 38/91/128 39/90/129 48/96/127
f 39/90/129 40/89/130 48/96/127
f 40/89/130 41/88/131 48/96/127
f 41/88/131 42/87/132 48/96/127
f 42/87/132 43/86/133 48/96/127
f 43/86/133 44/85/134 48/96/127
f 44/85/134 45/84/135 48/96/127
f 45/84/135 46/94/136 48/96/127
f 46/94/136 36/93/125 48/96/127
g default
v 2.476175 1.483709 -24.020547
v 2.325216 1.483709 -24.020548
v 2.249737 1.483709 -23.889813
v 2.325216 1.483709 -23.759079
v 2.476175 1.483709 -23.759079
v 2.551654 1.483709 -23.889813
v 2.476175 7.260183 -24.020547
v 2.325216 7.260183 -24.020548
v 2.249737 7.260183 -23.889813
v 2.325216 7.260183 -23.759079
v 2.476175 7.260183 -23.759079
v 2.551654 7.260183 -23.889813
v 2.400696 1.483709 -23.889813
v 2.400696 7.260183 -23.889813
vt 0.826215 0.444838
vt 0.765459 0.444838
vt 0.735081 0.499128
vt 0.765459 0.553418
vt 0.826215 0.553418
vt 0.856593 0.499128
vt 0.896326 0.017634
vt 0.906625 0.017634
vt 0.916924 0.017634
vt 0.927224 0.017634
vt 0.937523 0.017634
vt 0.947822 0.017634
vt 0.958122 0.017634
vt 0.896326 0.984643
vt 0.906625 0.984643
vt 0.916924 0.984643
vt 0.927224 0.984643
vt 0.937523 0.984643
vt 0.947822 0.984643
vt 0.958122 0.984643
vt 0.834047 0.579740
vt 0.772882 0.579740
vt 0.742299 0.632710
vt 0.772882 0.685681
vt 0.834047 0.685681
vt 0.864630 0.632710
vt 0.795837 0.496620
vt 0.803465 0.630264
vn 0.000000 0.000000 -1.000000
vn 0.000000 0.000000 -1.000000
vn 0.000000 0.000000 -1.000000
vn 0.000000 0.000000 -1.000000
vn -0.866025 0.000000 -0.500000
vn -0.866025 0.000000 -0.500000
vn -0.866025 0.000000 -0.500000
vn -0.866025 0.000000 -0.500000
vn -0.866026 0.000000 0.500000
vn -0.866026 0.000000 0.500000
vn -0.866026 0.000000 0.500000
vn -0.866026 0.000000 0.500000
vn -0.000000 0.000000 1.000000
vn -0.000000 0.000000 1.000000
vn -0.000000 0.000000 1.000000
vn -0.000000 0.000000 1.000000
vn 0.866025 0.000000 0.500000
vn 0.866025 0.000000 0.500000
vn 0.866025 0.000000 0.500000
vn 0.866025 0.000000 0.500000
vn 0.866025 0.000000 -0.500000
vn 0.866025 0.000000 -0.500000
vn 0.866025 0.000000 -0.500000
vn 0.866025 0.000000 -0.500000
vn 0.000000 -1.000000 0.000001
vn 0.000000 -1.000000 0.000001
vn 0.000000 -1.000000 0.000000
vn 0.000000 -1.000000 0.000000
vn 0.000000 -1.000000 -0.000001
vn 0.000000 -1.000000 -0.000001
vn 0.000000 -1.000000 0.000000
vn 0.000000 1.000000 0.000000
vn 0.000000 1.000000 -0.000001
vn 0.000000 1.000000 0.000000
vn 0.000000 1.000000 -0.000001
vn 0.000000 1.000000 0.000000
vn 0.000000 1.000000 0.000001
vn 0.000000 1.000000 0.000001
s off
g stoplight pCylinder1
usemtl initialShadingGroup
f 49/103/137 50/104/138 56/111/139 55/110/140
f 50/104/141 51/105/142 57/112/143 56/111/144
f 51/105/145 52/106/146 58/113/147 57/112/148
f 52/106/149 53/107/150 59/114/151 58/113/152
f 53/107/153 54/108/154 60/115/155 59/114/156
f 54/108/157 49/109/158 55/116/159 60/115/160
s 1
f 50/98/161 49/97/162 61/123/163
f 51/99/164 50/98/161 61/123/163
f 52/100/165 51/99/164 61/123/163
f 53/101/166 52/100/165 61/123/163
f 54/102/167 53/101/166 61/123/163
f 49/97/162 54/102/167 61/123/163
s 2
f 55/121/168 56/120/169 62/124/170
f 56/120/169 57/119/171 62/124/170
f 57/119/171 58/118/172 62/124/170
f 58/118/172 59/117/173 62/124/170
f 59/117/173 60/122/174 62/124/170
f 60/122/174 55/121/168 62/124/170
g default
v 1.860798 7.300362 -23.447488
v 2.864123 7.300362 -23.447488
v 1.860798 7.300362 -24.332139
v 2.864123 7.300362 -24.332139
v 1.687071 10.243792 -23.447488
v 1.881576 10.427161 -23.447488
v 1.687071 10.243792 -24.332139
v 1.881576 10.427161 -24.332139
v 2.843344 10.427161 -23.447488
v 3.037850 10.243792 -23.447488
v 3.037850 10.243792 -24.332139
v 2.843344 10.427161 -24.332139
v 2.862890 10.408736 -23.447488
v 2.677410 7.300362 -23.447488
v 2.054548 7.300362 -23.447488
v 2.851433 10.210063 -23.447488
v 1.893721 10.202069 -23.447488
v 2.686372 7.437399 -23.447488
v 2.046446 7.432769 -23.447488
v 2.862890 10.408736 -23.250986
v 2.851433 10.210063 -23.250986
v 2.686372 7.437399 -23.250986
v 2.677410 7.300362 -23.250986
v 2.864123 7.300362 -23.250986
v 3.037850 10.243792 -23.250986
v 2.046446 7.432769 -23.250986
v 2.054548 7.300362 -23.250986
v 1.860798 7.300362 -23.250986
v 1.893721 10.202069 -23.250986
v 1.881576 10.427161 -23.250986
v 1.687071 10.243792 -23.250986
v 2.843344 10.427161 -23.250986
vt 0.596268 0.637752
vt 0.364957 0.840220
vt 0.595411 0.840871
vt 0.338421 0.096137
vt 0.636098 0.477913
vt 0.365362 0.637277
vt 0.131000 0.065814
vt 0.327216 0.262348
vt 0.112596 0.227997
vt 0.372539 0.474339
vt 0.578000 0.277521
vt 0.609981 0.091507
vt 0.813918 0.046065
vt 0.844354 0.205785
vt 0.378044 0.281377
vt 0.326326 0.477458
vt 0.631151 0.257178
vt 0.589929 0.475204
vt 0.583855 0.275773
vt 0.558937 0.063680
vt 0.552554 0.840731
vt 0.393985 0.063057
vt 0.409481 0.840333
vt 0.540911 0.216182
vt 0.413056 0.217293
vt 0.527031 0.131964
vt 0.428093 0.131315
vt 0.568678 0.235300
vt 0.548802 0.107208
vt 0.548131 0.101130
vt 0.580152 0.114497
vt 0.597418 0.234152
vt 0.570036 0.243267
vt 0.405779 0.107678
vt 0.406232 0.101987
vt 0.373353 0.115704
vt 0.390294 0.237308
vt 0.388843 0.246700
vt 0.356947 0.236820
vt 0.566633 0.243705
vn -0.000000 0.000000 1.000000
vn -0.000000 0.000000 1.000000
vn -0.000000 0.000000 1.000000
vn -0.000000 0.000000 1.000000
vn -0.000000 0.000000 1.000000
vn -0.000000 0.000000 1.000000
vn 0.000000 1.000000 0.000000
vn 0.000000 1.000000 0.000000
vn 0.000000 1.000000 0.000000
vn 0.000000 1.000000 0.000000
vn 0.000000 -1.000000 -0.000000
vn 0.000000 -1.000000 -0.000000
vn 0.000000 -1.000000 -0.000000
vn 0.000000 -1.000000 -0.000000
vn 0.000000 -1.000000 -0.000000
vn 0.000000 -1.000000 -0.000000
vn 0.998263 -0.058919 0.000000
vn 0.998263 -0.058919 0.000000
vn 0.998263 -0.058919 0.000000
vn 0.998263 -0.058919 0.000000
vn -0.998263 -0.058919 0.000000
vn -0.998263 -0.058919 0.000000
vn -0.998263 -0.058919 0.000000
vn -0.998263 -0.058919 0.000000
vn 0.000000 0.000000 -1.000000
vn 0.000000 0.000000 -1.000000
vn 0.000000 0.000000 -1.000000
vn 0.000000 0.000000 -1.000000
vn 0.000000 0.000000 -1.000000
vn 0.000000 0.000000 -1.000000
vn -0.685968 0.727632 0.000000
vn -0.685968 0.727632 0.000000
vn -0.685968 0.727632 0.000000
vn -0.685968 0.727632 0.000000
vn 0.685967 0.727632 -0.000001
vn 0.685968 0.727632 -0.000001
vn 0.685969 0.727631 -0.000001
vn 0.685968 0.727632 -0.000001
vn 0.685968 0.727632 -0.000001
vn -0.000000 0.000000 1.000000
vn -0.000000 0.000000 1.000000
vn 0.000000 0.000000 1.000000
vn -0.000000 0.000000 1.000000
vn -0.000000 0.000000 1.000000
vn 0.000000 0.000000 1.000000
vn -0.000000 0.000000 1.000000
vn 0.000000 0.000000 1.000000
vn 0.000000 0.000000 1.000000
vn 0.000000 0.000000 1.000000
vn 0.000000 0.000000 1.000000
vn -0.998233 0.059426 0.000000
vn -0.998233 0.059426 0.000000
vn -0.998233 0.059426 0.000000
vn -0.998233 0.059426 0.000000
vn 0.000000 -1.000000 0.000000
vn 0.000000 -1.000000 0.000000
vn 0.998263 -0.058919 0.000000
vn 0.998263 -0.058919 0.000000
vn 0.685968 0.727632 0.000000
vn 0.685972 0.727628 0.000000
vn -0.007235 0.999974 0.000000
vn -0.007235 0.999974 0.000000
vn -0.007235 0.999974 0.000000
vn -0.007235 0.999974 0.000000
vn 0.000000 -1.000000 0.000000
vn 0.000000 -1.000000 0.000000
vn 0.998483 0.055066 0.000000
vn 0.998483 0.055066 0.000000
vn 0.998483 0.055066 0.000000
vn 0.998483 0.055066 0.000000
vn -0.685968 0.727632 0.000000
vn -0.685968 0.727632 0.000000
vn -0.998263 -0.058919 0.000000
vn -0.998263 -0.058919 0.000000
vn 0.008347 -0.999965 0.000000
vn 0.008347 -0.999965 0.000000
vn 0.008347 -0.999965 0.000000
vn 0.008347 -0.999965 0.000000
vn 0.685933 0.727664 0.000000
vn 0.000000 1.000000 0.000000
vn 0.000000 1.000000 0.000000
s 1
g stoplight stoplight_kop
usemtl initialShadingGroup
f 82/157/175 83/152/176 84/153/177 85/154/178 86/155/179 87/156/180
s 2
f 70/134/181 68/139/182 71/135/183 74/142/184
s 3
f 65/130/185 66/125/186 64/127/187 76/145/188 77/147/189 63/126/190
s 4
f 64/136/191 66/137/192 73/138/193 72/141/194
s 5
f 65/131/195 63/128/196 67/132/197 69/133/198
s off
f 69/140/199 70/134/200 74/142/201 73/129/202 66/125/203 65/130/204
s 6
f 67/132/205 68/139/206 70/134/207 69/140/208
s 7
f 71/135/209 75/143/210 72/141/211 73/129/212 74/142/213
s 1
f 84/153/177 88/158/214 89/159/215 85/154/178
f 90/160/216 89/159/215 88/158/214 91/161/217 92/162/218 93/163/219
f 92/162/218 91/161/217 83/152/176 82/157/175 94/164/220
s off
f 78/148/221 79/149/222 81/151/223 80/150/224
f 78/148/225 80/150/226 84/153/227 83/152/228
s 3
f 76/144/188 64/136/187 86/155/229 85/154/230
s 4
f 64/136/191 72/141/194 87/156/231 86/155/232
s 7
f 72/141/211 75/143/210 82/157/233 87/156/234
s off
f 80/150/235 81/151/236 88/158/237 84/153/238
s 3
f 77/146/189 76/144/188 85/154/230 89/159/239
f 63/128/190 77/146/189 89/159/239 90/160/240
s off
f 81/151/241 79/149/242 91/161/243 88/158/244
s 6
f 68/139/206 67/132/205 93/163/245 92/162/246
s 5
f 67/132/197 63/128/196 90/160/247 93/163/248
s off
f 79/149/249 78/148/250 83/152/251 91/161/252
s 7
f 75/143/210 71/135/209 94/164/253 82/157/233
s 2
f 71/135/183 68/139/182 92/162/254 94/164/255
