# This file uses centimeters as units for non-parametric coordinates.

mtllib struikje.mtl
g default
v 14.926089 0.236086 7.366851
v 14.609785 0.236086 7.092772
v 14.195515 0.236086 7.033209
v 13.814807 0.236086 7.207072
v 13.588533 0.236086 7.559162
v 13.588533 0.236086 7.977692
v 13.814807 0.236086 8.329782
v 14.195515 0.236086 8.503645
v 14.609785 0.236086 8.444082
v 14.926089 0.236086 8.170003
v 15.044002 0.236086 7.768427
v 15.475586 0.613204 7.013710
v 14.881130 0.613204 6.498611
v 14.102557 0.613204 6.386669
v 13.387060 0.613204 6.713425
v 12.961803 0.613204 7.375137
v 12.961803 0.613204 8.161716
v 13.387059 0.613204 8.823428
v 14.102556 0.613204 9.150185
v 14.881129 0.613204 9.038244
v 15.475586 0.613204 8.523144
v 15.697191 0.613204 7.768427
v 15.883438 1.190983 6.751600
v 15.082529 1.190983 6.057608
v 14.033561 1.190983 5.906789
v 13.069574 1.190983 6.347027
v 12.496627 1.190983 7.238549
v 12.496627 1.190983 8.298304
v 13.069573 1.190983 9.189827
v 14.033560 1.190983 9.630065
v 15.082528 1.190983 9.479246
v 15.883438 1.190983 8.785254
v 16.182005 1.190983 7.768427
v 16.100451 1.899734 6.612134
v 15.189691 1.899734 5.822956
v 13.996849 1.899734 5.651450
v 12.900643 1.899734 6.152070
v 12.249112 1.899734 7.165872
v 12.249111 1.899734 8.370981
v 12.900643 1.899734 9.384783
v 13.996848 1.899734 9.885404
v 15.189691 1.899734 9.713899
v 16.100451 1.899734 8.924720
v 16.439969 1.899734 7.768427
v 16.100451 2.653972 6.612134
v 15.189691 2.653972 5.822956
v 13.996849 2.653972 5.651450
v 12.900643 2.653972 6.152070
v 12.249112 2.653972 7.165872
v 12.249111 2.653972 8.370981
v 12.900643 2.653972 9.384783
v 13.996848 2.653972 9.885404
v 15.189691 2.653972 9.713899
v 16.100451 2.653972 8.924720
v 16.439969 2.653972 7.768427
v 15.883438 3.362723 6.751600
v 15.082529 3.362723 6.057608
v 14.033561 3.362723 5.906789
v 13.069574 3.362723 6.347027
v 12.496627 3.362723 7.238549
v 12.496627 3.362723 8.298304
v 13.069573 3.362723 9.189827
v 14.033560 3.362723 9.630065
v 15.082528 3.362723 9.479246
v 15.883438 3.362723 8.785254
v 16.182005 3.362723 7.768427
v 15.475586 3.940502 7.013710
v 14.881130 3.940502 6.498611
v 14.102557 3.940502 6.386669
v 13.387060 3.940502 6.713425
v 12.961803 3.940502 7.375137
v 12.961803 3.940502 8.161716
v 13.387059 3.940502 8.823428
v 14.102556 3.940502 9.150185
v 14.881129 3.940502 9.038244
v 15.475586 3.940502 8.523144
v 15.697191 3.940502 7.768427
v 14.926089 4.317621 7.366851
v 14.609785 4.317621 7.092772
v 14.195515 4.317621 7.033209
v 13.814807 4.317621 7.207072
v 13.588533 4.317621 7.559162
v 13.588533 4.317621 7.977692
v 13.814807 4.317621 8.329782
v 14.195515 4.317621 8.503645
v 14.609785 4.317621 8.444082
v 14.926089 4.317621 8.170003
v 15.044002 4.317621 7.768427
v 14.301223 0.105114 7.768427
v 14.301223 4.448593 7.768427
vt 0.084824 0.177086
vt 0.160311 0.177086
vt 0.235797 0.177086
vt 0.311284 0.177086
vt 0.386770 0.177086
vt 0.462257 0.177086
vt 0.537743 0.177086
vt 0.613230 0.177086
vt 0.688716 0.177086
vt 0.764203 0.177086
vt 0.839689 0.177086
vt 0.915176 0.177086
vt 0.084824 0.269347
vt 0.160311 0.269347
vt 0.235797 0.269347
vt 0.311284 0.269347
vt 0.386770 0.269347
vt 0.462257 0.269347
vt 0.537743 0.269347
vt 0.613230 0.269347
vt 0.688716 0.269347
vt 0.764203 0.269347
vt 0.839689 0.269347
vt 0.915176 0.269347
vt 0.084824 0.361608
vt 0.160311 0.361608
vt 0.235797 0.361608
vt 0.311284 0.361608
vt 0.386770 0.361608
vt 0.462257 0.361608
vt 0.537743 0.361608
vt 0.613230 0.361608
vt 0.688716 0.361608
vt 0.764203 0.361608
vt 0.839689 0.361608
vt 0.915176 0.361608
vt 0.084824 0.453869
vt 0.160311 0.453869
vt 0.235797 0.453869
vt 0.311284 0.453869
vt 0.386770 0.453869
vt 0.462257 0.453869
vt 0.537743 0.453869
vt 0.613230 0.453869
vt 0.688716 0.453869
vt 0.764203 0.453869
vt 0.839689 0.453869
vt 0.915176 0.453869
vt 0.084824 0.546131
vt 0.160311 0.546131
vt 0.235797 0.546131
vt 0.311284 0.546131
vt 0.386770 0.546131
vt 0.462257 0.546131
vt 0.537743 0.546131
vt 0.613230 0.546131
vt 0.688716 0.546131
vt 0.764203 0.546131
vt 0.839689 0.546131
vt 0.915176 0.546131
vt 0.084824 0.638392
vt 0.160311 0.638392
vt 0.235797 0.638392
vt 0.311284 0.638392
vt 0.386770 0.638392
vt 0.462257 0.638392
vt 0.537743 0.638392
vt 0.613230 0.638392
vt 0.688716 0.638392
vt 0.764203 0.638392
vt 0.839689 0.638392
vt 0.915176 0.638392
vt 0.084824 0.730653
vt 0.160311 0.730653
vt 0.235797 0.730653
vt 0.311284 0.730653
vt 0.386770 0.730653
vt 0.462257 0.730653
vt 0.537743 0.730653
vt 0.613230 0.730653
vt 0.688716 0.730653
vt 0.764203 0.730653
vt 0.839689 0.730653
vt 0.915176 0.730653
vt 0.084824 0.822914
vt 0.160311 0.822914
vt 0.235797 0.822914
vt 0.311284 0.822914
vt 0.386770 0.822914
vt 0.462257 0.822914
vt 0.537743 0.822914
vt 0.613230 0.822914
vt 0.688716 0.822914
vt 0.764203 0.822914
vt 0.839689 0.822914
vt 0.915176 0.822914
vt 0.122568 0.084824
vt 0.198054 0.084824
vt 0.273541 0.084824
vt 0.349027 0.084824
vt 0.424514 0.084824
vt 0.500000 0.084824
vt 0.575487 0.084824
vt 0.650973 0.084824
vt 0.726460 0.084824
vt 0.801946 0.084824
vt 0.877432 0.084824
vt 0.122568 0.915176
vt 0.198054 0.915176
vt 0.273541 0.915176
vt 0.349027 0.915176
vt 0.424514 0.915176
vt 0.500000 0.915176
vt 0.575487 0.915176
vt 0.650973 0.915176
vt 0.726460 0.915176
vt 0.801946 0.915176
vt 0.877432 0.915176
vn 0.337634 -0.856841 -0.389650
vn 0.337634 -0.856841 -0.389650
vn 0.337634 -0.856841 -0.389650
vn 0.337634 -0.856841 -0.389650
vn 0.073375 -0.856840 -0.510334
vn 0.073375 -0.856840 -0.510334
vn 0.073375 -0.856840 -0.510334
vn 0.073375 -0.856840 -0.510334
vn -0.214180 -0.856840 -0.468990
vn -0.214180 -0.856840 -0.468990
vn -0.214180 -0.856840 -0.468990
vn -0.214180 -0.856840 -0.468990
vn -0.433735 -0.856840 -0.278744
vn -0.433735 -0.856840 -0.278744
vn -0.433735 -0.856840 -0.278744
vn -0.433735 -0.856840 -0.278744
vn -0.515582 -0.856840 0.000000
vn -0.515582 -0.856840 0.000000
vn -0.515582 -0.856840 0.000000
vn -0.515582 -0.856840 0.000000
vn -0.433735 -0.856840 0.278744
vn -0.433735 -0.856840 0.278744
vn -0.433735 -0.856840 0.278744
vn -0.433735 -0.856840 0.278744
vn -0.214180 -0.856840 0.468989
vn -0.214180 -0.856840 0.468989
vn -0.214180 -0.856840 0.468989
vn -0.214180 -0.856840 0.468989
vn 0.073375 -0.856840 0.510334
vn 0.073375 -0.856840 0.510334
vn 0.073375 -0.856840 0.510334
vn 0.073375 -0.856840 0.510334
vn 0.337634 -0.856840 0.389651
vn 0.337634 -0.856840 0.389651
vn 0.337634 -0.856840 0.389651
vn 0.337634 -0.856840 0.389651
vn 0.494697 -0.856840 0.145257
vn 0.494697 -0.856840 0.145257
vn 0.494697 -0.856840 0.145257
vn 0.494697 -0.856840 0.145257
vn 0.494697 -0.856840 -0.145256
vn 0.494697 -0.856840 -0.145256
vn 0.494697 -0.856840 -0.145256
vn 0.494697 -0.856840 -0.145256
vn 0.510086 -0.627119 -0.588671
vn 0.510086 -0.627119 -0.588671
vn 0.510086 -0.627119 -0.588671
vn 0.510086 -0.627119 -0.588671
vn 0.110852 -0.627120 -0.770995
vn 0.110852 -0.627120 -0.770995
vn 0.110852 -0.627120 -0.770995
vn 0.110852 -0.627120 -0.770995
vn -0.323576 -0.627119 -0.708534
vn -0.323576 -0.627119 -0.708534
vn -0.323576 -0.627119 -0.708534
vn -0.323576 -0.627119 -0.708534
vn -0.655272 -0.627119 -0.421118
vn -0.655272 -0.627119 -0.421118
vn -0.655272 -0.627119 -0.421118
vn -0.655272 -0.627119 -0.421118
vn -0.778923 -0.627119 0.000000
vn -0.778923 -0.627119 0.000000
vn -0.778923 -0.627119 0.000000
vn -0.778923 -0.627119 0.000000
vn -0.655272 -0.627119 0.421118
vn -0.655272 -0.627119 0.421118
vn -0.655272 -0.627119 0.421118
vn -0.655272 -0.627119 0.421118
vn -0.323576 -0.627119 0.708534
vn -0.323576 -0.627119 0.708534
vn -0.323576 -0.627119 0.708534
vn -0.323576 -0.627119 0.708534
vn 0.110852 -0.627119 0.770995
vn 0.110852 -0.627119 0.770995
vn 0.110852 -0.627119 0.770995
vn 0.110852 -0.627119 0.770995
vn 0.510086 -0.627119 0.588671
vn 0.510086 -0.627119 0.588671
vn 0.510086 -0.627119 0.588671
vn 0.510086 -0.627119 0.588671
vn 0.747371 -0.627119 0.219448
vn 0.747371 -0.627119 0.219448
vn 0.747371 -0.627119 0.219448
vn 0.747371 -0.627119 0.219448
vn 0.747371 -0.627119 -0.219448
vn 0.747371 -0.627119 -0.219448
vn 0.747371 -0.627119 -0.219448
vn 0.747371 -0.627119 -0.219448
vn 0.618245 -0.329700 -0.713492
vn 0.618245 -0.329700 -0.713492
vn 0.618245 -0.329700 -0.713492
vn 0.618245 -0.329700 -0.713492
vn 0.134358 -0.329700 -0.934476
vn 0.134358 -0.329700 -0.934476
vn 0.134358 -0.329700 -0.934476
vn 0.134358 -0.329700 -0.934476
vn -0.392187 -0.329700 -0.858771
vn -0.392187 -0.329700 -0.858771
vn -0.392187 -0.329700 -0.858771
vn -0.392187 -0.329700 -0.858771
vn -0.794215 -0.329700 -0.510412
vn -0.794215 -0.329700 -0.510412
vn -0.794215 -0.329700 -0.510412
vn -0.794215 -0.329700 -0.510412
vn -0.944086 -0.329700 -0.000000
vn -0.944086 -0.329700 -0.000000
vn -0.944086 -0.329700 -0.000000
vn -0.944086 -0.329700 -0.000000
vn -0.794215 -0.329700 0.510411
vn -0.794215 -0.329700 0.510411
vn -0.794215 -0.329700 0.510411
vn -0.794215 -0.329700 0.510411
vn -0.392187 -0.329700 0.858771
vn -0.392187 -0.329700 0.858771
vn -0.392187 -0.329700 0.858771
vn -0.392187 -0.329700 0.858771
vn 0.134358 -0.329700 0.934476
vn 0.134357 -0.329700 0.934476
vn 0.134357 -0.329700 0.934476
vn 0.134358 -0.329700 0.934476
vn 0.618245 -0.329700 0.713492
vn 0.618245 -0.329700 0.713492
vn 0.618245 -0.329700 0.713492
vn 0.618245 -0.329700 0.713492
vn 0.905844 -0.329700 0.265980
vn 0.905844 -0.329700 0.265980
vn 0.905844 -0.329700 0.265980
vn 0.905844 -0.329700 0.265980
vn 0.905844 -0.329700 -0.265980
vn 0.905844 -0.329700 -0.265980
vn 0.905844 -0.329700 -0.265980
vn 0.905844 -0.329700 -0.265980
vn 0.654861 0.000000 -0.755749
vn 0.654861 0.000000 -0.755749
vn 0.654861 0.000000 -0.755749
vn 0.654861 0.000000 -0.755749
vn 0.142315 0.000000 -0.989821
vn 0.142315 0.000000 -0.989821
vn 0.142315 0.000000 -0.989821
vn 0.142315 0.000000 -0.989821
vn -0.415415 0.000000 -0.909632
vn -0.415415 0.000000 -0.909632
vn -0.415415 0.000000 -0.909632
vn -0.415415 0.000000 -0.909632
vn -0.841253 0.000000 -0.540641
vn -0.841253 0.000000 -0.540641
vn -0.841253 0.000000 -0.540641
vn -0.841253 0.000000 -0.540641
vn -1.000000 0.000000 -0.000000
vn -1.000000 0.000000 -0.000000
vn -1.000000 0.000000 -0.000000
vn -1.000000 0.000000 -0.000000
vn -0.841253 0.000000 0.540641
vn -0.841253 0.000000 0.540641
vn -0.841253 0.000000 0.540641
vn -0.841253 0.000000 0.540641
vn -0.415415 0.000000 0.909632
vn -0.415415 0.000000 0.909632
vn -0.415415 0.000000 0.909632
vn -0.415415 0.000000 0.909632
vn 0.142315 0.000000 0.989821
vn 0.142315 0.000000 0.989821
vn 0.142315 0.000000 0.989821
vn 0.142315 0.000000 0.989821
vn 0.654861 0.000000 0.755750
vn 0.654861 0.000000 0.755750
vn 0.654861 0.000000 0.755750
vn 0.654861 0.000000 0.755750
vn 0.959493 0.000000 0.281733
vn 0.959493 0.000000 0.281733
vn 0.959493 0.000000 0.281733
vn 0.959493 0.000000 0.281733
vn 0.959493 0.000000 -0.281732
vn 0.959493 0.000000 -0.281732
vn 0.959493 0.000000 -0.281732
vn 0.959493 0.000000 -0.281732
vn 0.618245 0.329700 -0.713492
vn 0.618245 0.329700 -0.713492
vn 0.618245 0.329700 -0.713492
vn 0.618245 0.329700 -0.713492
vn 0.134358 0.329700 -0.934476
vn 0.134358 0.329700 -0.934476
vn 0.134358 0.329700 -0.934476
vn 0.134358 0.329700 -0.934476
vn -0.392187 0.329700 -0.858771
vn -0.392187 0.329700 -0.858771
vn -0.392187 0.329700 -0.858771
vn -0.392187 0.329700 -0.858771
vn -0.794215 0.329700 -0.510412
vn -0.794215 0.329700 -0.510412
vn -0.794215 0.329700 -0.510412
vn -0.794215 0.329700 -0.510412
vn -0.944086 0.329700 -0.000000
vn -0.944086 0.329700 -0.000000
vn -0.944086 0.329700 -0.000000
vn -0.944086 0.329700 -0.000000
vn -0.794216 0.329700 0.510411
vn -0.794216 0.329700 0.510411
vn -0.794216 0.329700 0.510411
vn -0.794216 0.329700 0.510411
vn -0.392188 0.329700 0.858770
vn -0.392188 0.329700 0.858771
vn -0.392188 0.329700 0.858770
vn -0.392188 0.329700 0.858770
vn 0.134357 0.329700 0.934476
vn 0.134357 0.329700 0.934476
vn 0.134357 0.329700 0.934476
vn 0.134357 0.329700 0.934476
vn 0.618245 0.329700 0.713493
vn 0.618245 0.329700 0.713493
vn 0.618245 0.329700 0.713493
vn 0.618245 0.329700 0.713493
vn 0.905844 0.329700 0.265980
vn 0.905844 0.329700 0.265980
vn 0.905844 0.329700 0.265980
vn 0.905844 0.329700 0.265980
vn 0.905844 0.329700 -0.265980
vn 0.905844 0.329700 -0.265980
vn 0.905844 0.329700 -0.265980
vn 0.905844 0.329700 -0.265980
vn 0.510086 0.627120 -0.588670
vn 0.510086 0.627120 -0.588670
vn 0.510086 0.627120 -0.588670
vn 0.510086 0.627120 -0.588670
vn 0.110852 0.627119 -0.770995
vn 0.110852 0.627119 -0.770995
vn 0.110852 0.627119 -0.770995
vn 0.110852 0.627119 -0.770995
vn -0.323576 0.627120 -0.708533
vn -0.323576 0.627120 -0.708533
vn -0.323576 0.627120 -0.708533
vn -0.323576 0.627120 -0.708533
vn -0.655272 0.627119 -0.421118
vn -0.655272 0.627119 -0.421118
vn -0.655272 0.627120 -0.421118
vn -0.655272 0.627120 -0.421118
vn -0.778923 0.627120 -0.000000
vn -0.778923 0.627120 -0.000000
vn -0.778923 0.627120 -0.000000
vn -0.778923 0.627120 -0.000000
vn -0.655272 0.627120 0.421117
vn -0.655272 0.627120 0.421117
vn -0.655272 0.627120 0.421117
vn -0.655272 0.627120 0.421117
vn -0.323576 0.627120 0.708533
vn -0.323576 0.627120 0.708533
vn -0.323576 0.627120 0.708533
vn -0.323576 0.627120 0.708533
vn 0.110852 0.627120 0.770995
vn 0.110852 0.627120 0.770995
vn 0.110852 0.627120 0.770995
vn 0.110852 0.627120 0.770995
vn 0.510086 0.627120 0.588671
vn 0.510086 0.627120 0.588671
vn 0.510086 0.627120 0.588671
vn 0.510086 0.627120 0.588671
vn 0.747371 0.627119 0.219448
vn 0.747371 0.627119 0.219448
vn 0.747371 0.627119 0.219448
vn 0.747371 0.627119 0.219448
vn 0.747371 0.627120 -0.219448
vn 0.747371 0.627120 -0.219448
vn 0.747371 0.627120 -0.219448
vn 0.747371 0.627120 -0.219448
vn 0.337635 0.856840 -0.389651
vn 0.337634 0.856840 -0.389651
vn 0.337635 0.856840 -0.389651
vn 0.337635 0.856840 -0.389651
vn 0.073375 0.856840 -0.510334
vn 0.073375 0.856840 -0.510334
vn 0.073375 0.856840 -0.510334
vn 0.073375 0.856840 -0.510334
vn -0.214180 0.856840 -0.468990
vn -0.214180 0.856840 -0.468990
vn -0.214180 0.856840 -0.468990
vn -0.214180 0.856840 -0.468990
vn -0.433735 0.856840 -0.278745
vn -0.433735 0.856840 -0.278745
vn -0.433735 0.856840 -0.278745
vn -0.433735 0.856840 -0.278745
vn -0.515582 0.856840 0.000000
vn -0.515582 0.856840 0.000000
vn -0.515582 0.856840 0.000000
vn -0.515582 0.856840 0.000000
vn -0.433735 0.856840 0.278744
vn -0.433735 0.856840 0.278744
vn -0.433735 0.856840 0.278744
vn -0.433735 0.856840 0.278744
vn -0.214181 0.856840 0.468990
vn -0.214181 0.856840 0.468990
vn -0.214181 0.856840 0.468990
vn -0.214181 0.856840 0.468990
vn 0.073375 0.856840 0.510334
vn 0.073375 0.856840 0.510334
vn 0.073375 0.856840 0.510334
vn 0.073375 0.856840 0.510334
vn 0.337635 0.856840 0.389651
vn 0.337635 0.856840 0.389651
vn 0.337635 0.856840 0.389651
vn 0.337635 0.856840 0.389651
vn 0.494697 0.856840 0.145256
vn 0.494697 0.856840 0.145256
vn 0.494697 0.856840 0.145256
vn 0.494697 0.856840 0.145256
vn 0.494697 0.856840 -0.145256
vn 0.494697 0.856840 -0.145256
vn 0.494697 0.856840 -0.145256
vn 0.494697 0.856840 -0.145256
vn 0.118362 -0.983530 -0.136597
vn 0.118362 -0.983530 -0.136597
vn 0.118362 -0.983530 -0.136597
vn 0.025723 -0.983530 -0.178904
vn 0.025723 -0.983530 -0.178904
vn 0.025723 -0.983530 -0.178904
vn -0.075084 -0.983530 -0.164410
vn -0.075084 -0.983530 -0.164410
vn -0.075084 -0.983530 -0.164410
vn -0.152052 -0.983530 -0.097720
vn -0.152052 -0.983530 -0.097720
vn -0.152052 -0.983530 -0.097720
vn -0.180744 -0.983530 0.000003
vn -0.180744 -0.983530 0.000003
vn -0.180744 -0.983530 0.000003
vn -0.152052 -0.983530 0.097717
vn -0.152052 -0.983530 0.097717
vn -0.152052 -0.983530 0.097717
vn -0.075084 -0.983530 0.164410
vn -0.075084 -0.983530 0.164410
vn -0.075084 -0.983530 0.164410
vn 0.025723 -0.983530 0.178905
vn 0.025723 -0.983530 0.178905
vn 0.025723 -0.983530 0.178905
vn 0.118362 -0.983530 0.136597
vn 0.118362 -0.983530 0.136597
vn 0.118362 -0.983530 0.136597
vn 0.173423 -0.983530 0.050923
vn 0.173423 -0.983530 0.050923
vn 0.173423 -0.983530 0.050923
vn 0.173423 -0.983530 -0.050923
vn 0.173423 -0.983530 -0.050923
vn 0.173423 -0.983530 -0.050923
vn 0.118363 0.983530 -0.136597
vn 0.118363 0.983530 -0.136597
vn 0.118363 0.983530 -0.136597
vn 0.025723 0.983530 -0.178905
vn 0.025723 0.983530 -0.178905
vn 0.025723 0.983530 -0.178905
vn -0.075084 0.983530 -0.164411
vn -0.075084 0.983530 -0.164411
vn -0.075084 0.983530 -0.164411
vn -0.152052 0.983530 -0.097718
vn -0.152052 0.983530 -0.097718
vn -0.152052 0.983530 -0.097718
vn -0.180745 0.983530 -0.000001
vn -0.180745 0.983530 -0.000001
vn -0.180745 0.983530 -0.000001
vn -0.152052 0.983530 0.097718
vn -0.152052 0.983530 0.097718
vn -0.152052 0.983530 0.097718
vn -0.075084 0.983530 0.164411
vn -0.075084 0.983530 0.164411
vn -0.075084 0.983530 0.164411
vn 0.025723 0.983530 0.178904
vn 0.025723 0.983530 0.178904
vn 0.025723 0.983530 0.178904
vn 0.118363 0.983530 0.136598
vn 0.118363 0.983530 0.136598
vn 0.118363 0.983530 0.136598
vn 0.173423 0.983530 0.050922
vn 0.173423 0.983530 0.050922
vn 0.173423 0.983530 0.050922
vn 0.173423 0.983530 -0.050921
vn 0.173423 0.983530 -0.050921
vn 0.173423 0.983530 -0.050921
s off
g pSphere1
usemtl initialShadingGroup
f 1/1/1 2/2/2 13/14/3 12/13/4
f 2/2/5 3/3/6 14/15/7 13/14/8
f 3/3/9 4/4/10 15/16/11 14/15/12
f 4/4/13 5/5/14 16/17/15 15/16/16
f 5/5/17 6/6/18 17/18/19 16/17/20
f 6/6/21 7/7/22 18/19/23 17/18/24
f 7/7/25 8/8/26 19/20/27 18/19/28
f 8/8/29 9/9/30 20/21/31 19/20/32
f 9/9/33 10/10/34 21/22/35 20/21/36
f 10/10/37 11/11/38 22/23/39 21/22/40
f 11/11/41 1/12/42 12/24/43 22/23/44
f 12/13/45 13/14/46 24/26/47 23/25/48
f 13/14/49 14/15/50 25/27/51 24/26/52
f 14/15/53 15/16/54 26/28/55 25/27/56
f 15/16/57 16/17/58 27/29/59 26/28/60
f 16/17/61 17/18/62 28/30/63 27/29/64
f 17/18/65 18/19/66 29/31/67 28/30/68
f 18/19/69 19/20/70 30/32/71 29/31/72
f 19/20/73 20/21/74 31/33/75 30/32/76
f 20/21/77 21/22/78 32/34/79 31/33/80
f 21/22/81 22/23/82 33/35/83 32/34/84
f 22/23/85 12/24/86 23/36/87 33/35/88
f 23/25/89 24/26/90 35/38/91 34/37/92
f 24/26/93 25/27/94 36/39/95 35/38/96
f 25/27/97 26/28/98 37/40/99 36/39/100
f 26/28/101 27/29/102 38/41/103 37/40/104
f 27/29/105 28/30/106 39/42/107 38/41/108
f 28/30/109 29/31/110 40/43/111 39/42/112
f 29/31/113 30/32/114 41/44/115 40/43/116
f 30/32/117 31/33/118 42/45/119 41/44/120
f 31/33/121 32/34/122 43/46/123 42/45/124
f 32/34/125 33/35/126 44/47/127 43/46/128
f 33/35/129 23/36/130 34/48/131 44/47/132
f 34/37/133 35/38/134 46/50/135 45/49/136
f 35/38/137 36/39/138 47/51/139 46/50/140
f 36/39/141 37/40/142 48/52/143 47/51/144
f 37/40/145 38/41/146 49/53/147 48/52/148
f 38/41/149 39/42/150 50/54/151 49/53/152
f 39/42/153 40/43/154 51/55/155 50/54/156
f 40/43/157 41/44/158 52/56/159 51/55/160
f 41/44/161 42/45/162 53/57/163 52/56/164
f 42/45/165 43/46/166 54/58/167 53/57/168
f 43/46/169 44/47/170 55/59/171 54/58/172
f 44/47/173 34/48/174 45/60/175 55/59/176
f 45/49/177 46/50/178 57/62/179 56/61/180
f 46/50/181 47/51/182 58/63/183 57/62/184
f 47/51/185 48/52/186 59/64/187 58/63/188
f 48/52/189 49/53/190 60/65/191 59/64/192
f 49/53/193 50/54/194 61/66/195 60/65/196
f 50/54/197 51/55/198 62/67/199 61/66/200
f 51/55/201 52/56/202 63/68/203 62/67/204
f 52/56/205 53/57/206 64/69/207 63/68/208
f 53/57/209 54/58/210 65/70/211 64/69/212
f 54/58/213 55/59/214 66/71/215 65/70/216
f 55/59/217 45/60/218 56/72/219 66/71/220
f 56/61/221 57/62/222 68/74/223 67/73/224
f 57/62/225 58/63/226 69/75/227 68/74/228
f 58/63/229 59/64/230 70/76/231 69/75/232
f 59/64/233 60/65/234 71/77/235 70/76/236
f 60/65/237 61/66/238 72/78/239 71/77/240
f 61/66/241 62/67/242 73/79/243 72/78/244
f 62/67/245 63/68/246 74/80/247 73/79/248
f 63/68/249 64/69/250 75/81/251 74/80/252
f 64/69/253 65/70/254 76/82/255 75/81/256
f 65/70/257 66/71/258 77/83/259 76/82/260
f 66/71/261 56/72/262 67/84/263 77/83/264
f 67/73/265 68/74/266 79/86/267 78/85/268
f 68/74/269 69/75/270 80/87/271 79/86/272
f 69/75/273 70/76/274 81/88/275 80/87/276
f 70/76/277 71/77/278 82/89/279 81/88/280
f 71/77/281 72/78/282 83/90/283 82/89/284
f 72/78/285 73/79/286 84/91/287 83/90/288
f 73/79/289 74/80/290 85/92/291 84/91/292
f 74/80/293 75/81/294 86/93/295 85/92/296
f 75/81/297 76/82/298 87/94/299 86/93/300
f 76/82/301 77/83/302 88/95/303 87/94/304
f 77/83/305 67/84/306 78/96/307 88/95/308
f 2/2/309 1/1/310 89/97/311
f 3/3/312 2/2/313 89/98/314
f 4/4/315 3/3/316 89/99/317
f 5/5/318 4/4/319 89/100/320
f 6/6/321 5/5/322 89/101/323
f 7/7/324 6/6/325 89/102/326
f 8/8/327 7/7/328 89/103/329
f 9/9/330 8/8/331 89/104/332
f 10/10/333 9/9/334 89/105/335
f 11/11/336 10/10/337 89/106/338
f 1/12/339 11/11/340 89/107/341
f 78/85/342 79/86/343 90/108/344
f 79/86/345 80/87/346 90/109/347
f 80/87/348 81/88/349 90/110/350
f 81/88/351 82/89/352 90/111/353
f 82/89/354 83/90/355 90/112/356
f 83/90/357 84/91/358 90/113/359
f 84/91/360 85/92/361 90/114/362
f 85/92/363 86/93/364 90/115/365
f 86/93/366 87/94/367 90/116/368
f 87/94/369 88/95/370 90/117/371
f 88/95/372 78/96/373 90/118/374
